<svg viewBox="0 0 24 24">
  <title id="content-icon">Contents</title>
  <path d="M20.5,0h-17C2.673,0,2,0.673,2,1.5v16c0,0.065,0.013,0.13,0.039,0.191c0.025,0.06,0.061,0.113,0.105,0.158  c0.001,0.001,0.001,0.003,0.002,0.004l6,6c0.001,0.002,0.004,0.002,0.006,0.004c0.045,0.044,0.098,0.08,0.157,0.104  C8.37,23.987,8.435,24,8.5,24h12c0.827,0,1.5-0.673,1.5-1.5v-21C22,0.673,21.327,0,20.5,0z M8,22.293L3.707,18H7.5  C7.776,18,8,18.224,8,18.5V22.293z M21,22.5c0,0.276-0.224,0.5-0.5,0.5H9v-4.5C9,17.673,8.327,17,7.5,17H3V1.5  C3,1.224,3.224,1,3.5,1h17C20.776,1,21,1.224,21,1.5V22.5z"></path>
  <path d="M17,5H7C6.724,5,6.5,4.776,6.5,4.5S6.724,4,7,4h10c0.276,0,0.5,0.224,0.5,0.5S17.276,5,17,5z"></path>
  <path d="M17,8H7C6.724,8,6.5,7.776,6.5,7.5S6.724,7,7,7h10c0.276,0,0.5,0.224,0.5,0.5S17.276,8,17,8z"></path>
  <path d="M12,11H7c-0.276,0-0.5-0.224-0.5-0.5S6.724,10,7,10h5c0.276,0,0.5,0.224,0.5,0.5S12.276,11,12,11z"></path>
</svg>
