<svg id="Layer_1" data-name="Layer 1" xmlns="http://www.w3.org/2000/svg" width="30.88mm" height="30.87mm" viewBox="0 0 87.53 87.5">
  <title>setting-icon</title>
  <path d="M53,87.25H34.49l-2-10.85a34.51,34.51,0,0,1-3.94-1.62L19.5,81,6.41,68l6.33-9.07A33.94,33.94,0,0,1,11.09,55L.24,53V34.5l10.85-2a34.41,34.41,0,0,1,1.62-3.91l-6.3-9.08L19.5,6.47l9.11,6.27a34.51,34.51,0,0,1,3.91-1.62l2-10.85H53l2,10.85a34.45,34.45,0,0,1,3.91,1.62l9.08-6.27L81,19.55l-6.27,9.11a34.42,34.42,0,0,1,1.59,3.88l10.88,2V53L76.35,55a34.14,34.14,0,0,1-1.62,3.88L81,68,67.95,81l-9.08-6.27A34.36,34.36,0,0,1,55,76.4Zm-16-3h13.5L52.33,74.1l.87-.27a31.43,31.43,0,0,0,5.1-2.12l.8-.42,8.5,5.87,9.54-9.54-5.9-8.5.42-.8a31.39,31.39,0,0,0,2.12-5.07l.27-.86,10.19-1.87V37L74,35.16l-.27-.86a31.35,31.35,0,0,0-2.09-5.07l-.42-.8,5.87-8.53-9.55-9.55-8.5,5.87-.8-.42a31.39,31.39,0,0,0-5.1-2.12l-.86-.27L50.49,3.25H37L35.15,13.41l-.86.27a31.47,31.47,0,0,0-5.1,2.12l-.8.42-8.53-5.87L10.31,19.9l5.9,8.5-.42.8a31.35,31.35,0,0,0-2.12,5.1l-.27.86L3.24,37V50.5L13.4,52.35l.27.86a31,31,0,0,0,2.15,5.1l.42.81-5.93,8.5,9.54,9.54,8.5-5.87.8.42a31.49,31.49,0,0,0,5.13,2.12l.86.27Z"/>
  <path d="M43.74,64.25a20.5,20.5,0,1,1,20.5-20.5A20.52,20.52,0,0,1,43.74,64.25Zm0-38a17.5,17.5,0,1,0,17.5,17.5A17.52,17.52,0,0,0,43.74,26.25Z"/>
</svg>
