
<svg viewBox="0 0 86 86">
<title  id="settings-icon"></title>
<path d="M35,1l-1.9,10.5c-1.9,0.6-3.6,1.3-5.3,2.2L19,7.7L7.6,19l6.1,8.8c-0.9,1.7-1.6,3.5-2.2,5.3L1,35v16l10.5,1.9
	c0.6,1.9,1.4,3.6,2.2,5.3l-6.1,8.8L19,78.4l8.8-6.1c1.7,0.9,3.5,1.6,5.4,2.2L35,85h16l1.9-10.5c1.9-0.6,3.6-1.3,5.3-2.2l8.8,6.1
	l11.3-11.3l-6.1-8.8c0.9-1.7,1.6-3.5,2.2-5.3L85,51V35l-10.5-1.9c-0.6-1.8-1.3-3.6-2.2-5.3l6.1-8.8L67.1,7.7l-8.8,6.1
	c-1.7-0.9-3.5-1.6-5.3-2.2L51,1H35z"/>
<path class="st0" d="M43,24c10.5,0,19,8.5,19,19c0,10.5-8.5,19-19,19c-10.5,0-19-8.5-19-19C24,32.6,32.5,24,43,24z"/>
</svg>
