<svg viewBox="0 0 100 125">
  <g transform="translate(0,-952.36218)" aria-label="settings" >
    <title id="settings-icon"></title>
    <path d="m 42,960.36216 -1.9062,10.5 c -1.8532,0.58249 -3.6477,1.33411 -5.3438,2.21875 l -8.8125,-6.0625 -11.3125,11.3125 6.0938,8.78125 c -0.8885,1.70097 -1.6345,3.48465 -2.2188,5.34375 l -10.4999998,1.90625 0,16.00004 L 18.5,1012.2684 c 0.5858,1.8637 1.3586,3.639 2.25,5.3438 l -6.125,8.7812 11.3125,11.3126 8.7813,-6.0626 c 1.7035,0.8904 3.5129,1.6335 5.375,2.2188 l 1.9062,10.5 16,0 1.9062,-10.5 c 1.859,-0.5844 3.6428,-1.3303 5.3438,-2.2188 l 8.7812,6.0626 11.3126,-11.3126 -6.0938,-8.7812 c 0.8847,-1.6934 1.6353,-3.4624 2.2188,-5.3125 L 92,1010.3622 92,994.36216 81.4688,992.45591 c -0.5806,-1.84671 -1.307,-3.62167 -2.1876,-5.3125 l 6.0626,-8.8125 -11.3126,-11.3125 -8.7812,6.0625 c -1.701,-0.88839 -3.4847,-1.63437 -5.3438,-2.21875 l -1.9062,-10.5 -16,0 z m 8,23 c 10.4816,0 19,8.51835 19,19.00004 0,10.4815 -8.5184,19 -19,19 -10.4815,0 -19,-8.5185 -19,-19 0,-10.4817 8.5185,-19.00004 19,-19.00004 z m 0,2 c -9.4007,0 -17,7.5992 -17,17.00004 0,9.4006 7.5993,17 17,17 9.4007,0 17,-7.5994 17,-17 0,-9.40084 -7.5993,-17.00004 -17,-17.00004 z" stroke="none"/>
  </g>
</svg>
